<svg width="100" height="100" viewBox="0 0 100 100" fill="none" xmlns="http://www.w3.org/2000/svg">
<path d="M50 0C22.3858 0 0 22.3858 0 50C0 77.6142 22.3858 100 50 100C77.6142 100 100 77.6142 100 50C100 22.3858 77.6142 0 50 0ZM50 96C24.5964 96 4 75.4036 4 50C4 24.5964 24.5964 4 50 4C75.4036 4 96 24.5964 96 50C96 75.4036 75.4036 96 50 96Z" fill="url(#paint0_linear_1_2)"/>
<path d="M68 50C68 45.5817 64.4183 42 60 42C55.5817 42 52 45.5817 52 50C52 54.4183 55.5817 58 60 58C64.4183 58 68 54.4183 68 50Z" fill="url(#paint1_linear_1_2)"/>
<path d="M48 50C48 45.5817 44.4183 42 40 42C35.5817 42 32 45.5817 32 50C32 54.4183 35.5817 58 40 58C44.4183 58 48 54.4183 48 50Z" fill="url(#paint2_linear_1_2)"/>
<path d="M60 28C55.5817 28 52 31.5817 52 36C52 40.4183 55.5817 44 60 44C64.4183 44 68 40.4183 68 36C68 31.5817 64.4183 28 60 28Z" fill="url(#paint3_linear_1_2)"/>
<path d="M40 72C44.4183 72 48 68.4183 48 64C48 59.5817 44.4183 56 40 56C35.5817 56 32 59.5817 32 64C32 68.4183 35.5817 72 40 72Z" fill="url(#paint4_linear_1_2)"/>
<path d="M40 28C44.4183 28 48 31.5817 48 36C48 40.4183 44.4183 44 40 44C35.5817 44 32 40.4183 32 36C32 31.5817 35.5817 28 40 28Z" fill="url(#paint5_linear_1_2)"/>
<path d="M60 72C55.5817 72 52 68.4183 52 64C52 59.5817 55.5817 56 60 56C64.4183 56 68 59.5817 68 64C68 68.4183 55.5817 72 60 72Z" fill="url(#paint6_linear_1_2)"/>
<defs>
<linearGradient id="paint0_linear_1_2" x1="50" y1="0" x2="50" y2="100" gradientUnits="userSpaceOnUse">
<stop stop-color="#3F51B5"/>
<stop offset="1" stop-color="#9575CD"/>
</linearGradient>
<linearGradient id="paint1_linear_1_2" x1="60" y1="42" x2="60" y2="58" gradientUnits="userSpaceOnUse">
<stop stop-color="#FFFFFF"/>
<stop offset="1" stop-color="#E8EAF6"/>
</linearGradient>
<linearGradient id="paint2_linear_1_2" x1="40" y1="42" x2="40" y2="58" gradientUnits="userSpaceOnUse">
<stop stop-color="#FFFFFF"/>
<stop offset="1" stop-color="#E8EAF6"/>
</linearGradient>
<linearGradient id="paint3_linear_1_2" x1="60" y1="28" x2="60" y2="44" gradientUnits="userSpaceOnUse">
<stop stop-color="#FFFFFF"/>
<stop offset="1" stop-color="#E8EAF6"/>
</linearGradient>
<linearGradient id="paint4_linear_1_2" x1="40" y1="56" x2="40" y2="72" gradientUnits="userSpaceOnUse">
<stop stop-color="#FFFFFF"/>
<stop offset="1" stop-color="#E8EAF6"/>
</linearGradient>
<linearGradient id="paint5_linear_1_2" x1="40" y1="28" x2="40" y2="44" gradientUnits="userSpaceOnUse">
<stop stop-color="#FFFFFF"/>
<stop offset="1" stop-color="#E8EAF6"/>
</linearGradient>
<linearGradient id="paint6_linear_1_2" x1="60" y1="56" x2="60" y2="72" gradientUnits="userSpaceOnUse">
<stop stop-color="#FFFFFF"/>
<stop offset="1" stop-color="#E8EAF6"/>
</linearGradient>
</defs>
</svg>
